<svg width="250" height="250" viewBox="0 0 250 250" fill="none" xmlns="http://www.w3.org/2000/svg">
<rect width="250" height="250" fill="url(#paint0_linear_2924_13)"/>
<path d="M130.52 185.88C125.827 185.88 121.613 185.187 117.88 183.8C114.147 182.52 111.053 180.867 108.6 178.84C106.147 177.027 104.387 175.8 103.32 175.16C102.253 174.413 101.24 174.04 100.28 174.04C98.04 174.04 96.6533 175.853 96.12 179.48L95.32 184.6H90.36L89.4 134.04H94.52C96.0133 142.147 98.52 149.773 102.04 156.92C105.667 164.067 109.987 169.827 115 174.2C120.12 178.573 125.613 180.76 131.48 180.76C139.907 180.76 145.667 178.893 148.76 175.16C151.853 171.427 153.4 167.213 153.4 162.52C153.4 159.747 152.387 157.293 150.36 155.16C148.44 152.92 145.613 150.573 141.88 148.12L107.64 126.04C102.627 122.84 98.36 118.84 94.84 114.04C91.4267 109.24 89.72 103.533 89.72 96.92C89.72 86.5733 92.7067 78.8933 98.68 73.88C104.76 68.76 112.227 66.2 121.08 66.2C128.653 66.2 136.227 68.8667 143.8 74.2C146.253 76.12 148.173 77.08 149.56 77.08C151.48 77.08 152.653 75.8533 153.08 73.4L154.04 69.08H159.16L160.76 110.68H155.64C153.613 103.32 150.787 96.6533 147.16 90.68C143.533 84.7067 139.32 80.0133 134.52 76.6C129.827 73.08 124.92 71.32 119.8 71.32C114.147 71.32 109.933 72.44 107.16 74.68C104.493 76.92 103.16 80.28 103.16 84.76C103.16 90.84 107.907 96.9733 117.4 103.16L151.8 125.4C156.173 128.28 159.64 132.227 162.2 137.24C164.867 142.253 166.2 147.48 166.2 152.92C166.2 158.467 164.867 163.747 162.2 168.76C159.533 173.773 155.533 177.88 150.2 181.08C144.867 184.28 138.307 185.88 130.52 185.88Z" fill="white"/>
<defs>
<linearGradient id="paint0_linear_2924_13" x1="125" y1="0" x2="125" y2="250" gradientUnits="userSpaceOnUse">
<stop/>
<stop offset="1" stop-color="#341F97"/>
</linearGradient>
</defs>
</svg>
