<svg width="12" height="19" viewBox="0 0 12 19" fill="none" xmlns="http://www.w3.org/2000/svg">
<path d="M2.64205 12L0.255682 3.27273H1.32955L3.15341 10.3807H3.23864L5.09659 3.27273H6.28977L8.14773 10.3807H8.23295L10.0568 3.27273H11.1307L8.74432 12H7.65341L5.72727 5.04545H5.65909L3.73295 12H2.64205Z" fill="#00F7EF"/>
<path d="M2.64205 16L0.255682 7.27273H1.32955L3.15341 14.3807H3.23864L5.09659 7.27273H6.28977L8.14773 14.3807H8.23295L10.0568 7.27273H11.1307L8.74432 16H7.65341L5.72727 9.04545H5.65909L3.73295 16H2.64205Z" fill="#FF004F"/>
<path d="M2.64205 14L0.255682 5.27273H1.32955L3.15341 12.3807H3.23864L5.09659 5.27273H6.28977L8.14773 12.3807H8.23295L10.0568 5.27273H11.1307L8.74432 14H7.65341L5.72727 7.04545H5.65909L3.73295 14H2.64205Z" fill="black"/>
</svg>
